<?xml version="1.0" standalone="no"?><!DOCTYPE svg PUBLIC "-//W3C//DTD SVG 1.1//EN" "http://www.w3.org/Graphics/SVG/1.1/DTD/svg11.dtd"><svg t="1740490998716" class="icon" viewBox="0 0 1024 1024" version="1.1" xmlns="http://www.w3.org/2000/svg" p-id="2568" xmlns:xlink="http://www.w3.org/1999/xlink" width="200" height="200"><path d="M512 1024c282.771692 0 512-229.228308 512-512S794.771692 0 512 0 0 229.228308 0 512s229.228308 512 512 512z m0-59.076923C261.858462 964.923077 59.076923 762.141538 59.076923 512S261.858462 59.076923 512 59.076923s452.923077 202.781538 452.923077 452.923077-202.781538 452.923077-452.923077 452.923077z" fill="#979797" p-id="2569"></path><path d="M463.990154 753.467077C479.704615 756.578462 495.753846 758.153846 512 758.153846c135.945846 0 246.153846-110.208 246.153846-246.153846S647.945846 265.846154 512 265.846154 265.846154 376.054154 265.846154 512c0 16.246154 1.575385 32.295385 4.686769 48.009846a29.538462 29.538462 0 1 0 57.954462-11.470769A188.130462 188.130462 0 0 1 324.923077 512c0-103.315692 83.761231-187.076923 187.076923-187.076923s187.076923 83.761231 187.076923 187.076923-83.761231 187.076923-187.076923 187.076923c-12.386462 0-24.605538-1.201231-36.539077-3.564308a29.538462 29.538462 0 1 0-11.470769 57.954462z" fill="#979797" p-id="2570"></path><path d="M512 512m-78.769231 0a78.769231 78.769231 0 1 0 157.538462 0 78.769231 78.769231 0 1 0-157.538462 0Z" fill="#979797" p-id="2571"></path><path d="M508.583385 493.715692C392.792615 539.283692 315.076923 651.303385 315.076923 777.846154a29.538462 29.538462 0 0 0 59.076923 0 246.222769 246.222769 0 0 1 156.061539-229.159385 29.538462 29.538462 0 1 0-21.632-54.971077z" fill="#979797" p-id="2572"></path></svg>